name D:\school\WTK\thesis\model\3dpredictsim\Results\MidTarsalJoint\Fal_s1_bCst_PF_Natali2010_ls150_MT_k30_MTP_Mu5_ig24_PFx10.mot
datacolumns 128
datarows 4
range 1.67484757 1.70834452
endheader
time	pelvis_tilt	pelvis_list	pelvis_rotation	pelvis_tx	pelvis_ty	pelvis_tz	hip_flexion_l	hip_adduction_l	hip_rotation_l	hip_flexion_r	hip_adduction_r	hip_rotation_r	knee_angle_l	knee_angle_r	ankle_angle_l	ankle_angle_r	subtalar_angle_l	subtalar_angle_r	tmt_angle_l	tmt_angle_r	mtp_angle_l	mtp_angle_r	lumbar_extension	lumbar_bending	lumbar_rotation	arm_flex_l	arm_add_l	arm_rot_l	arm_flex_r	arm_add_r	arm_rot_r	elbow_flex_l	elbow_flex_r	pro_sup_l	pro_sup_r	glut_med1_l/activation	glut_med2_l/activation	glut_med3_l/activation	glut_min1_l/activation	glut_min2_l/activation	glut_min3_l/activation	semimem_l/activation	semiten_l/activation	bifemlh_l/activation	bifemsh_l/activation	sar_l/activation	add_long_l/activation	add_brev_l/activation	add_mag1_l/activation	add_mag2_l/activation	add_mag3_l/activation	tfl_l/activation	pect_l/activation	grac_l/activation	glut_max1_l/activation	glut_max2_l/activation	glut_max3_l/activation	iliacus_l/activation	psoas_l/activation	quad_fem_l/activation	gem_l/activation	peri_l/activation	rect_fem_l/activation	vas_med_l/activation	vas_int_l/activation	vas_lat_l/activation	med_gas_l/activation	lat_gas_l/activation	soleus_l/activation	tib_post_l/activation	flex_dig_l/activation	flex_hal_l/activation	tib_ant_l/activation	per_brev_l/activation	per_long_l/activation	per_tert_l/activation	ext_dig_l/activation	ext_hal_l/activation	ercspn_l/activation	intobl_l/activation	extobl_l/activation	glut_med1_r/activation	glut_med2_r/activation	glut_med3_r/activation	glut_min1_r/activation	glut_min2_r/activation	glut_min3_r/activation	semimem_r/activation	semiten_r/activation	bifemlh_r/activation	bifemsh_r/activation	sar_r/activation	add_long_r/activation	add_brev_r/activation	add_mag1_r/activation	add_mag2_r/activation	add_mag3_r/activation	tfl_r/activation	pect_r/activation	grac_r/activation	glut_max1_r/activation	glut_max2_r/activation	glut_max3_r/activation	iliacus_r/activation	psoas_r/activation	quad_fem_r/activation	gem_r/activation	peri_r/activation	rect_fem_r/activation	vas_med_r/activation	vas_int_r/activation	vas_lat_r/activation	med_gas_r/activation	lat_gas_r/activation	soleus_r/activation	tib_post_r/activation	flex_dig_r/activation	flex_hal_r/activation	tib_ant_r/activation	per_brev_r/activation	per_long_r/activation	per_tert_r/activation	ext_dig_r/activation	ext_hal_r/activation	ercspn_r/activation	intobl_r/activation	extobl_r/activation	
          1.67484757	         -2.93017635	          2.88290371	         -4.88946421	          2.09355947	          0.92307372	          0.00125571	         25.08266514	          4.52684663	         -1.74873914	        -15.50298166	         -1.41092084	          5.91457126	         -3.12146195	         -9.47243476	          4.34453621	          2.66460423	         -7.02127238	          7.52881475	         -3.10045842	          1.07200420	          8.72219107	          0.01041257	         -1.99190451	         -1.29087486	          2.25314053	         -5.82668228	        -13.47266056	          4.60309566	          4.11108763	        -13.45654765	         15.66934101	         16.69301232	         37.45002580	         86.51662706	         86.51662706	          0.05930434	          0.05930449	          0.05000049	          0.05930474	          0.05930468	          0.05000528	          0.16647302	          0.06530076	          0.17753336	          0.05000022	          0.05000068	          0.15469993	          0.36743805	          0.20398087	          0.24370669	          0.13197334	          0.05000023	          0.07925230	          0.10812714	          0.05607317	          0.12419273	          0.16463269	          0.05000061	          0.05000033	          0.10128748	          0.25702118	          0.12043228	          0.07419167	          0.18235142	          0.18374322	          0.14264418	          0.05109249	          0.05058140	          0.06030260	          0.05000012	          0.05000045	          0.05000032	          0.53673631	          0.29911145	          0.18808927	          0.14536855	          0.40637679	          0.09754484	          0.06079146	          0.10279263	          0.09820203	          0.32296905	          0.09895803	          0.07059851	          0.31828806	          0.20091254	          0.10163969	          0.05000211	          0.05000054	          0.05000037	          0.05276426	          0.10659611	          0.09793801	          0.05014497	          0.05000257	          0.05000348	          0.05000105	          0.33466616	          0.06044980	          0.05005934	          0.05000285	          0.05000172	          0.05000127	          0.37777287	          0.62365937	          0.05000054	          0.05000153	          0.05669901	          0.17487265	          0.05000077	          0.05000078	          0.05000069	          0.26145657	          0.36647267	          0.37018647	          0.26649763	          0.34073819	          0.40564035	          0.05000010	          0.07425568	          0.19376575	          0.05000064	          0.05000020	          0.05000070	          0.05000014	          0.05000010	          0.05000019	
          1.68601322	         -2.92835958	          2.97388416	         -5.13335875	          2.11040780	          0.92237795	          0.00105666	         24.13680928	          4.89757282	         -1.44919724	        -15.26475319	         -1.67344846	          5.70784807	         -2.88939493	        -11.57725465	          3.63579423	          2.05361695	         -7.32446389	          8.32097820	         -3.10390906	          0.51416919	          8.63372778	          1.19522428	         -1.77798075	         -1.49965398	          2.30947023	         -6.63111921	        -13.47128447	          4.41100437	          3.76443245	        -13.46609332	         15.89368877	         16.34582456	         38.56889229	         86.51662706	         86.51662706	          0.05000002	          0.05000008	          0.09884760	          0.05000008	          0.05000010	          0.05000014	          0.14565076	          0.06022212	          0.14967909	          0.05000045	          0.05000091	          0.13042836	          0.34880528	          0.35085121	          0.26325957	          0.13065792	          0.05000042	          0.07618877	          0.18892206	          0.06308225	          0.10712525	          0.13880260	          0.05000014	          0.05000034	          0.36841417	          0.21669550	          0.10153696	          0.06255161	          0.15374144	          0.15491488	          0.12026412	          0.05000055	          0.05944728	          0.05280601	          0.05930497	          0.06444222	          0.07045908	          0.52357136	          0.40333588	          0.24103297	          0.12256084	          0.34261772	          0.08224072	          0.05125349	          0.08666483	          0.08279448	          0.27229645	          0.08343190	          0.05952193	          0.26835014	          0.16939019	          0.08569285	          0.05000621	          0.05000095	          0.05000125	          0.05000023	          0.08987186	          0.15949619	          0.05000078	          0.05928600	          0.05033432	          0.05930722	          0.28215875	          0.05096620	          0.05000141	          0.05015139	          0.05022027	          0.05483681	          0.31850171	          0.57234363	          0.05000191	          0.05925780	          0.05001218	          0.14743594	          0.09974336	          0.10302608	          0.13580772	          0.22043493	          0.30897441	          0.31210559	          0.23473034	          0.36432907	          0.44753060	          0.05000005	          0.06260557	          0.20335637	          0.05000023	          0.05000007	          0.05000030	          0.06147276	          0.05930533	          0.05877757	
          1.69717887	         -2.92247578	          3.07122639	         -5.34459636	          2.12748479	          0.92170422	          0.00088517	         23.12089553	          5.15391050	         -1.13343738	        -14.95183120	         -1.94247012	          5.50204237	         -2.90374252	        -13.79065468	          3.00799007	          1.26424135	         -7.63315000	          9.09721514	         -3.16087844	         -0.18886129	          8.76572265	          2.75063635	         -1.54950392	         -1.72517349	          2.35219574	         -7.43973946	        -13.48166513	          4.28252022	          3.34924395	        -13.47002122	         16.05248018	         16.02474649	         39.66151187	         86.51662706	         86.51662706	          0.24693932	          0.24052003	          0.28121692	          0.35925514	          0.23046746	          0.19983101	          0.13433172	          0.05932498	          0.13202450	          0.05000078	          0.05000108	          0.10996464	          0.29407896	          0.29580400	          0.22195528	          0.11015861	          0.05000108	          0.06423578	          0.15928116	          0.05626401	          0.10533644	          0.11702510	          0.05000058	          0.05000041	          0.31061131	          0.18269698	          0.25161908	          0.05273757	          0.12962015	          0.13060949	          0.10139532	          0.05000472	          0.05012058	          0.05330081	          0.05000038	          0.05433174	          0.05940446	          0.60988925	          0.35261860	          0.20321614	          0.41293821	          0.43145480	          0.06933767	          0.06040771	          0.11081992	          0.06980433	          0.31241941	          0.07034176	          0.05018322	          0.30131716	          0.14281365	          0.07224802	          0.05000353	          0.05000046	          0.05000036	          0.05000050	          0.07577203	          0.14817184	          0.05008865	          0.05000168	          0.05000249	          0.05000271	          0.31601120	          0.09307250	          0.05000410	          0.05000329	          0.05000203	          0.05000122	          0.26853008	          0.53279293	          0.05000050	          0.05000144	          0.05000048	          0.12430385	          0.08409417	          0.08686185	          0.11450013	          0.18584944	          0.26049739	          0.26313728	          0.19790209	          0.30716860	          0.37787344	          0.05000003	          0.09675774	          0.20938124	          0.05000022	          0.05000006	          0.05000024	          0.05477543	          0.05000054	          0.05000009	
          1.70834452	         -2.91486310	          3.16496342	         -5.51992379	          2.14460287	          0.92111179	          0.00069060	         22.05719853	          5.38097827	         -0.81331262	        -14.51898436	         -2.20769810	          5.31397090	         -2.85258662	        -16.16059681	          2.40157992	          0.23922142	         -7.93446707	          9.85502476	         -3.21206338	         -0.99871780	          8.93473802	          4.66628746	         -1.32664212	         -1.95496941	          2.38567767	         -8.20920676	        -13.49325292	          4.21127847	          2.90161995	        -13.47787038	         16.17457446	         15.70716148	         40.69576369	         86.51662706	         86.51662706	          0.34229527	          0.33509005	          0.37390592	          0.30288959	          0.19430914	          0.24200996	          0.12573946	          0.10964456	          0.12225411	          0.06797804	          0.05000188	          0.09271161	          0.24793903	          0.24939366	          0.18713208	          0.14002959	          0.05000049	          0.05415848	          0.13429150	          0.20895230	          0.15433808	          0.10802063	          0.05000018	          0.05000018	          0.26187754	          0.15403259	          0.21215483	          0.05000009	          0.10928342	          0.11011755	          0.08548697	          0.05000004	          0.05000010	          0.05000001	          0.05000011	          0.05143443	          0.05008504	          0.70824523	          0.42746812	          0.22202623	          0.60397558	          0.43996677	          0.10030055	          0.08460073	          0.09343273	          0.05885230	          0.27662593	          0.05930543	          0.05000015	          0.25404271	          0.12040685	          0.06091264	          0.05000489	          0.05000045	          0.05000040	          0.05000026	          0.06388413	          0.15612159	          0.07674529	          0.05000455	          0.05000522	          0.05000311	          0.30798647	          0.07848007	          0.05000161	          0.05000391	          0.05000255	          0.05000158	          0.22639869	          0.47466042	          0.05000030	          0.05000100	          0.05000026	          0.10480107	          0.09368811	          0.09696898	          0.09656390	          0.15669029	          0.21962625	          0.22185193	          0.16685197	          0.25897514	          0.31858665	          0.06624725	          0.11136032	          0.20222286	          0.05000052	          0.05000013	          0.05000030	          0.07258002	          0.05000003	          0.05000008	
